<svg width="32" height="32" viewBox="0 0 32 32" fill="none" xmlns="http://www.w3.org/2000/svg">
<rect width="32" height="32" rx="5" fill="black"/>
<path d="M12.2393 13.674C12.1882 13.1584 11.9688 12.7578 11.581 12.4723C11.1932 12.1868 10.6669 12.044 10.0021 12.044C9.55043 12.044 9.16903 12.108 8.85795 12.2358C8.54688 12.3594 8.30824 12.532 8.14205 12.7536C7.98011 12.9751 7.89915 13.2266 7.89915 13.5078C7.89063 13.7422 7.93963 13.9467 8.04616 14.1214C8.15696 14.2962 8.30824 14.4474 8.5 14.5753C8.69176 14.6989 8.91335 14.8075 9.16477 14.9013C9.41619 14.9908 9.68466 15.0675 9.97017 15.1314L11.1463 15.4126C11.7173 15.5405 12.2415 15.7109 12.7188 15.924C13.196 16.1371 13.6094 16.3991 13.9588 16.7102C14.3082 17.0213 14.5788 17.3878 14.7706 17.8097C14.9666 18.2315 15.0668 18.7152 15.071 19.2607C15.0668 20.0618 14.8622 20.7564 14.4574 21.3445C14.0568 21.9283 13.4773 22.3821 12.7188 22.706C11.9645 23.0256 11.0547 23.1854 9.98935 23.1854C8.93253 23.1854 8.01207 23.0234 7.22798 22.6996C6.44815 22.3757 5.83878 21.8963 5.39986 21.2614C4.9652 20.6222 4.73722 19.8317 4.71591 18.8899H7.39418C7.42401 19.3288 7.54972 19.6953 7.77131 19.9893C7.99716 20.2791 8.29759 20.4986 8.67259 20.6477C9.05185 20.7926 9.48011 20.8651 9.95739 20.8651C10.4261 20.8651 10.8331 20.7969 11.1783 20.6605C11.5277 20.5241 11.7983 20.3345 11.9901 20.0916C12.1818 19.8487 12.2777 19.5696 12.2777 19.2543C12.2777 18.9602 12.1903 18.7131 12.0156 18.5128C11.8452 18.3125 11.5938 18.142 11.2614 18.0014C10.9332 17.8608 10.5305 17.733 10.0533 17.6179L8.62784 17.2599C7.52415 16.9915 6.6527 16.5717 6.01349 16.0007C5.37429 15.4297 5.05682 14.6605 5.06108 13.6932C5.05682 12.9006 5.26776 12.2081 5.69389 11.6158C6.12429 11.0234 6.71449 10.5611 7.46449 10.2287C8.21449 9.89631 9.06676 9.73011 10.0213 9.73011C10.9929 9.73011 11.8409 9.89631 12.5653 10.2287C13.294 10.5611 13.8608 11.0234 14.2656 11.6158C14.6705 12.2081 14.8793 12.8942 14.892 13.674H12.2393ZM16.9327 23V9.90909H22.0975C23.0904 9.90909 23.9363 10.0987 24.6351 10.478C25.334 10.853 25.8667 11.375 26.2331 12.044C26.6039 12.7088 26.7892 13.4759 26.7892 14.3452C26.7892 15.2145 26.6017 15.9815 26.2267 16.6463C25.8517 17.3111 25.3084 17.8288 24.5968 18.1996C23.8894 18.5703 23.0328 18.7557 22.0272 18.7557H18.7353V16.5376H21.5797C22.1124 16.5376 22.5513 16.446 22.8965 16.2628C23.2459 16.0753 23.5059 15.8175 23.6763 15.4893C23.851 15.157 23.9384 14.7756 23.9384 14.3452C23.9384 13.9105 23.851 13.5312 23.6763 13.2074C23.5059 12.8793 23.2459 12.6257 22.8965 12.4467C22.5471 12.2635 22.1039 12.1719 21.5669 12.1719H19.7005V23H16.9327Z" fill="white"/>
</svg>
